<svg id="Layer_1" data-name="Layer 1" xmlns="http://www.w3.org/2000/svg" viewBox="0 0 217.45 84.36"><path d="M39.57,32.4h16v.78L41.92,50.31H55.76v1.57H39v-.65C43.56,45.46,48.13,39.75,52.69,34h-13a11.27,11.27,0,0,1-.07-1.57Z"/><path d="M89.94,32.4h1.78V50.31h9.2v1.57h-11q-.12-9.75,0-19.48Z"/><path d="M128.32,39.18a9.57,9.57,0,0,0-4.21-5.5,10.19,10.19,0,0,0-7.06-1.35,9.76,9.76,0,0,0-6.71,4.42,10.42,10.42,0,0,0-.93,9.06,9.72,9.72,0,0,0,4.21,5,10.17,10.17,0,0,0,8.49.78,9.78,9.78,0,0,0,5.21-4.21A10.62,10.62,0,0,0,128.32,39.18Zm-3.21,8.2a8,8,0,0,1-11.34,1.36,8.44,8.44,0,0,1-1-12.13,8,8,0,0,1,4.28-2.5,8.25,8.25,0,0,1,6.56,1.36A8.12,8.12,0,0,1,126.82,41,9.34,9.34,0,0,1,125.11,47.38Z"/><path d="M148.87,45a12.79,12.79,0,0,0-2.21-2.86,8.76,8.76,0,0,0,1.78-1.07,4.91,4.91,0,0,0-.36-7.49,7.59,7.59,0,0,0-4.35-1.21h-5.07V51.88h1.79V42.67c1.5.07,3.14-.28,4.56.43,1.22.71,1.86,2,2.64,3.14,1.15,1.86,2.29,3.78,3.5,5.64h2.14C151.79,49.59,150.37,47.31,148.87,45Zm-4.93-3.93h-3.42V34a33.75,33.75,0,0,1,3.78.07,4.07,4.07,0,0,1,3.35,1.78,3.68,3.68,0,0,1-.42,4.07A5,5,0,0,1,143.94,41.1Z"/><path d="M72.53,32.26h-1c-2.93,6.56-5.85,13.12-8.78,19.62h1.86c1-2.21,1.92-4.43,2.92-6.64h8.85c1,2.21,1.93,4.43,2.93,6.64h1.85C78.38,45.38,75.45,38.82,72.53,32.26ZM68.32,43.67c1.21-2.78,2.5-5.56,3.71-8.42,1.21,2.79,2.5,5.57,3.71,8.42Z"/><path d="M168.7,32.26h-1c-2.92,6.56-5.85,13.12-8.77,19.62h1.85c1-2.21,1.93-4.43,2.93-6.64h8.84c1,2.21,1.93,4.43,2.93,6.64h1.85C174.55,45.38,171.63,38.82,168.7,32.26Zm-4.21,11.41c1.21-2.78,2.5-5.56,3.71-8.42,1.21,2.79,2.5,5.57,3.71,8.42Z"/></svg>