<svg id="Layer_1" data-name="Layer 1" xmlns="http://www.w3.org/2000/svg" viewBox="0 0 217.45 84.36"><defs><style>.cls-1,.cls-2{fill-rule:evenodd;}.cls-2{fill:#e3014d;}</style></defs><path class="cls-1" d="M147.66,48.58c2.65,2.25,6.62,1.09,8.05-2.27s1-8.2-2.72-10c-2.5-1.22-9.16-.41-9.25.47V53.52h3.92Zm0-3.28V39.47a4,4,0,0,1,4.16.34c1.31,1.17,1.14,3.94.19,5.31s-3.32,1.56-4.34.18"/><path class="cls-1" d="M63.77,49.44c7.91.92,11.15,0,12.24-3.92,1.27-4.58-1.29-11.78-8.57-8.46V32.6H63.77Zm3.67-9.31a3.37,3.37,0,0,1,5.36,2.94c-.13,4-5.17,3.6-5.36,2.93Z"/><path class="cls-1" d="M101.49,42.89l5-6.57h-4.08L98.5,41.67a.29.29,0,0,1-.3.1.27.27,0,0,1-.18-.25V32.6H94.18V49.86H98v-5.1a.26.26,0,0,1,.47-.16l3.93,5.26h4.24l-5.17-6.65a.24.24,0,0,1,0-.32"/><path class="cls-1" d="M115.43,43V45.6c0,.58-1.41,1.5-3,1-2.28-.65-1.61-4.28,3-3.6m4.32,6.41.45-2.3c-.74-.23-1.36-.58-1.33-1.48.14-4.72.85-7.12-1.62-8.8-1.46-1-3.93-1.26-8.74-.2l.78,2.62c1.26-.14,6.34-1.44,6.3,1.3-2.38-.07-4.91,0-6.94,1.53-2.35,1.73-2,5.46.21,7a5.65,5.65,0,0,0,6.68-.87,3.68,3.68,0,0,0,4.21,1.2"/><path class="cls-1" d="M91.92,47.08c-.91-.16-1.17-.44-1.17-1.39V36.32H87.1v8.61C87.1,46,86,46.62,85,46.63a2.38,2.38,0,0,1-2.58-2.24V36.32H78.75v9.13c.19,3.38,3.56,6,8.55,3,1.22,1.35,2.75,1.28,4.19,1.07Z"/><rect x="122.43" y="32.57" width="3.77" height="17.25"/><path class="cls-1" d="M136.8,43V45.6c0,.58-1.42,1.5-3,1-2.28-.65-1.61-4.28,3-3.6m4.32,6.41.45-2.3c-.74-.23-1.36-.58-1.33-1.48.14-4.72.85-7.12-1.62-8.8-1.46-1-3.93-1.26-8.74-.2l.78,2.62c1.26-.14,6.34-1.44,6.3,1.3-2.38-.07-4.9,0-6.94,1.53-2.35,1.73-2,5.46.21,7a5.65,5.65,0,0,0,6.68-.87,3.68,3.68,0,0,0,4.21,1.2"/><path class="cls-1" d="M166.2,43V45.6c0,.58-1.42,1.5-3,1-2.28-.65-1.61-4.28,3-3.6m4.32,6.41.45-2.3c-.74-.23-1.36-.58-1.33-1.48.14-4.72.84-7.12-1.62-8.8-1.46-1-3.94-1.26-8.74-.2l.78,2.62c1.26-.14,6.34-1.44,6.3,1.3-2.38-.07-4.91,0-7,1.53-2.35,1.73-2,5.46.22,7a5.65,5.65,0,0,0,6.68-.87,3.68,3.68,0,0,0,4.21,1.2"/><path class="cls-1" d="M180.46,42.89l4.95-6.57h-4.08l-3.86,5.35a.27.27,0,0,1-.29.1.28.28,0,0,1-.19-.25V32.6h-3.83V49.86H177v-5.1a.27.27,0,0,1,.18-.25.28.28,0,0,1,.3.09l3.92,5.26h4.25l-5.18-6.65a.27.27,0,0,1,0-.32"/><path class="cls-2" d="M32,29.92,36,28.62a1.9,1.9,0,0,1,1.56.16A1.87,1.87,0,0,1,38.44,30l2.74,12.29a1.93,1.93,0,0,1-1.25,2.25l-1.6.55a1.93,1.93,0,0,1-2.41-1.05L30.86,32.53A1.94,1.94,0,0,1,32,29.92"/><path class="cls-2" d="M40.72,46.91a3.26,3.26,0,1,1-3.23,3.28,3.25,3.25,0,0,1,3.23-3.28"/><path class="cls-2" d="M47.48,44.8s-.52.23-1,.43a1.72,1.72,0,0,0-.93,2.24l.7,1.78a1.7,1.7,0,0,0,2.31,1,8.67,8.67,0,0,0,6-9A8.93,8.93,0,0,0,47.07,33a10.9,10.9,0,0,0-3.87.11,1.54,1.54,0,0,0-.91.44.93.93,0,0,0-.13.81l.91,3.43a.92.92,0,0,0,1.09.67A6.3,6.3,0,0,1,46,38.34a3.45,3.45,0,0,1,3.12,3.17,3.15,3.15,0,0,1-1.68,3.29"/></svg>